<svg xmlns="http://www.w3.org/2000/svg" viewBox="0 0 154.5 161.5">
  <g data-name="Layer 2">
    <g data-name="Layer 1">
      <path d="M98 14h56v-2h-47v-2h47V8h-49a1 1 0 0 0-1 1v3h-6c-3 0-8 0-9-6a4 4 0 0 1 1-3 4 4 0 0 1 3-1 2 2 0 0 1 1 2 1 1 0 1 0 0 2 3 3 0 0 0 2-3 4 4 0 0 0-4-3 6 6 0 0 0-4 2 6 6 0 0 0-1 5 8 8 0 0 0 5 6 8 8 0 0 0-5 7 6 6 0 0 0 5 7 3 3 0 0 0 1 0 4 4 0 0 0 2-1 4 4 0 0 0 1-3 3 3 0 0 0-2-2 1 1 0 1 0 0 2 2 2 0 0 1-2 2 4 4 0 0 1-3-5c1-5 6-6 9-6Z" style="fill:#c4a656"/>
      <path d="M132 21h22v-2h-41a1 1 0 0 0-1 1 1 1 0 0 0 1 1s11 0 18 3a1 1 0 0 0 1-1v-2ZM3 96a3 3 0 0 0 3-2 1 1 0 1 0-2 0 2 2 0 0 1-2-1 4 4 0 0 1 1-3 4 4 0 0 1 3-1c6 1 6 6 6 9v6H9a1 1 0 0 0-1 1v56h2v-54h2v54h2V98c0-3 1-8 6-9a4 4 0 0 1 5 4 2 2 0 0 1-2 1 1 1 0 0 0-2 0 3 3 0 0 0 2 2 4 4 0 0 0 3-1 4 4 0 0 0 1-2 3 3 0 0 0 0-1 6 6 0 0 0-7-5 8 8 0 0 0-7 5 8 8 0 0 0-6-5 6 6 0 0 0-5 1 6 6 0 0 0-2 4 4 4 0 0 0 3 4ZM9 19h9a1 1 0 0 0 1 0 1 1 0 0 0 0-1V9a1 1 0 0 0-1-1H9a1 1 0 0 0-1 0 1 1 0 0 0 0 1v9a1 1 0 0 0 1 1Zm1-9h7v7h-7ZM38 47h9v-9a1 1 0 0 0-1-1h-9v9a1 1 0 0 0 1 1Zm1-8h6v6h-6Z" style="fill:#c4a656"/>
      <path d="M12 87a1 1 0 0 0 2 0l6-6a1 1 0 0 0 1-1 1 1 0 0 0-1-1l-6-6a19 19 0 0 1 22-15 10 10 0 0 1 9 11 5 5 0 0 1-6 5 2 2 0 0 1-2-3 1 1 0 0 1 0-1 1 1 0 0 1 1 0 1 1 0 0 0 0-2 3 3 0 0 0-3 3 4 4 0 0 0 4 5 7 7 0 0 0 8-6v-1h22V47h1a7 7 0 0 0 6-8 4 4 0 0 0-5-4 3 3 0 0 0-3 3 1 1 0 0 0 2 0 1 1 0 0 1 0-1 1 1 0 0 1 1 0 2 2 0 0 1 3 2 5 5 0 0 1-5 6 10 10 0 0 1-11-9 19 19 0 0 1 15-22l6 6a1 1 0 0 0 1 1 1 1 0 0 0 1-1l6-6a1 1 0 0 0 0-2l-6-6a1 1 0 0 0-2 0l-6 6h-6V9a1 1 0 0 0-1-1H23a1 1 0 0 0-1 1v13H9a1 1 0 0 0-1 1v43a1 1 0 0 0 1 1h3v6l-6 6a1 1 0 0 0 0 2ZM80 8l5 5-5 5-5-5ZM27 56a22 22 0 0 0-13 11V42c0-8 4-12 10-12a7 7 0 0 1 5 3 9 9 0 0 1 2 6 4 4 0 0 1-4 4 2 2 0 0 1-2-2h1a1 1 0 1 0 0-2 3 3 0 0 0-3 2 4 4 0 0 0 4 4Zm37 8V46a12 12 0 0 0 3 1v20H47a12 12 0 0 0-1-3Zm-6-6V43a12 12 0 0 0 3 2h1v17H45v-1a12 12 0 0 0-2-3Zm9-44a22 22 0 0 0-11 13H45a4 4 0 0 0-4-4 3 3 0 0 0-2 3 1 1 0 1 0 2 0v-1a2 2 0 0 1 2 2 4 4 0 0 1-4 4 9 9 0 0 1-6-2 7 7 0 0 1-3-5c0-6 4-10 12-10ZM10 65V24h14V10h41v2H42c-9 0-14 4-14 12a9 9 0 0 0 3 7 11 11 0 0 0 8 3h1a6 6 0 0 0 4-3 6 6 0 0 0 1-2h11a21 21 0 0 0 0 8 13 13 0 0 0 0 2v17H39a13 13 0 0 0-2 0 21 21 0 0 0-8 0V45a6 6 0 0 0 2-1 6 6 0 0 0 2-4v-1a11 11 0 0 0-2-8 9 9 0 0 0-7-3c-8 0-12 5-12 14v23Zm3 10 5 5-5 5-5-5ZM21 161v-29h2a1 1 0 0 0 1-1c-3-7-3-18-3-18a1 1 0 0 0-1-1 1 1 0 0 0-1 1v49Z" style="fill:#c4a656"/>
    </g>
  </g>
</svg>