<svg xmlns="http://www.w3.org/2000/svg" xml:space="preserve" baseProfile="tiny" overflow="visible" viewBox="0 0 1152 864">
  <g fill="#595959">
    <ellipse cx="576" cy="144.8" rx="50.3" ry="51.7"/>
    <path d="m337 252-14 2c20 7 36 26 36 50s-16 43-36 49a51 51 0 0 0 65-50c-1-28-23-51-51-51zM815 356c5 0 10-1 14-3a52 52 0 0 1 0-99l-14-2c-28 0-50 23-50 52 0 28 22 52 50 52zM483 211c0-28-23-51-51-51s-27 103 0 103 51-23 51-52zM720 160a51 51 0 0 0 0 103c28 0 27-103 0-103z"/>
  </g>
  <g fill="#666">
    <path d="M423 387a49 49 0 0 0 6-4l9 9-1-13 3-1 4-2v1l-2 1v1l2 3a184 184 0 0 0 6 10l1-1v1l-4 2-4 2 1-2-6-14 2 17-1 2-12-13h-1l6 12 2 2 2-1v1l-3 1-3 2-1-1 2-1v-2l-5-12h-3zM465 387l-5 2-5 2v-1l1-1 1-1-2-5-1-1-6-5-2-1h-1l4-2 4-2 1 1-1 1c-1 0-1 0 0 0l5 5 1-7-1-1-2 1v-1l3-1 3-1-2 3-1 7 1 2 2 5 1 1 2-1v1zM470 378c1 3 3 5 6 4l2-3-2-2-6-1c-2-1-3-2-3-4-2-3 0-6 4-7h4v-2h1l1 6h-1c-1-3-3-4-5-3l-2 3c1 1 1 2 3 2l6 1 3 3c1 4-2 7-5 8l-6 1-1-5 1-1zM493 370l2 5 1 1 2-1v1l-5 1-5 2v-1l1-1 1-1-1-4-2-7-1-3c-2 0-3 1-3 2v4h-1l-1-6 6-1 3-1 6-2 1 5-1 1c0-2-1-3-2-3l-3-1 1 4 1 6zM503 362v-4h-3v-1l4-1 5-1v1l-2 1 1 3 1 7 1 4h2v1l-4 1-4 1-1-1 2-1-1-4-1-6zM513 354l5-1h4l5-1 1 5h-1l-1-3h-6v4l1 3h1c2 0 3-1 3-3h1l1 6h-1c-1-2-1-2-4-2h-1v3l1 4h3v1l-5 1-5 1v-1h2v-6l-1-5-1-5h-2v-1zM547 367l-6 1h-5l2-1 1-1a63 63 0 0 0-1-7l-5-6-2-1v-1h4l4-1 1 1h-2v1l4 6 2-6v-1h-2v-1l3-1h3l1 1-3 1a86 86 0 0 0-3 9l1 6h2l1 1zM553 354v-3l-2-1v-1h4l5-1v1l-2 1v10l1 5h2v1h-5l-4 1v-1l2-1v-4l-1-7zM564 348h7l1 2 7 11v-11l-2-1h-1v-1h6v1h-1l-1 1v16h-3l-10-15a209 209 0 0 0 2 14h2l-1 1h-7v-1h2l1-1v-14l-1-1h-1v-1zM601 355c0-4-2-5-4-6l-4 2-2 7 1 6 3 2 2-1v-4l-1-2h-1v-1a437 437 0 0 0 9 1l-2 1v6l-3 1h-4c-4 0-6-1-8-3l-1-7c0-3 2-6 4-7s4-2 6-1l5 1 1-1h1l-1 6h-1zM626 352c6 1 8 6 7 11s-4 9-10 8-8-6-7-11 4-9 10-8zm0 1-3 1-2 6v7l2 3 3-2 2-6v-7l-2-2zM640 362l1-5v-1h-2v-1l4 1 5 1 5 2v3c0 3-3 4-6 4 3 1 4 2 5 4l-1 4 1 2h1-3c-2-1-4-2-3-4v-3c0-2 0-3-2-3l-1-1-1 3-1 4 2 2-4-1-5-1v-1h3l1-4 1-5zm4 3h1c2 0 3-1 4-3v-3l-2-1h-1l-1 4-1 3zM672 383l-4-2-4-1v-1h2v-5l-2-1-3-1-2 4c-1 1 0 1 2 2v1l-4-1-3-1v-1c2 1 2 1 3-1l8-11 1-1h5a329 329 0 0 0 0 19h1v1zm-10-12 2 1 2 1v-8l-4 6zM692 378c0-3 0-6-2-7l-4 1-4 5v6l2 3c2 1 4 1 6-2l1 1c-2 3-5 4-9 2-3-1-4-3-5-5v-6c1-3 3-5 6-6h6l4 3 1-1 1 1-2 5h-1zM708 392l-3 5-3-2-6-2-4-2v-1h3l2-4 2-6 1-3v-1l-1-1v-1l4 2 4 2v1l-1-1-1 1-2 4-2 5-2 4 1 1 4 1 3-3 1 1zM717 382l4 3 4 2 4 2-2 4h-1v-3c0-1 0-2-2-3h-2l-2 3-1 3h1c2 1 3 1 4-1l1 1-3 6-1-1c1-2 1-3-1-4h-1l-1 1-2 5c-1 0-1 1 1 1 2 1 3 2 4 1l3-2 1 1-3 4-6-3-3-1-5-3 1-1 1 1h1l3-5 2-4 2-4-1-1-1-1 1-1z"/>
  </g>
  <g fill="#366">
    <path d="M834 644a83 83 0 0 1-64 38c-32 5-61-4-90-16 12 4 24 8 36 10 28 6 56 6 82-8 18-10 31-24 34-46 2-12-2-23-11-31a58 58 0 0 0-58-12c-15 4-19 25-12 37 7 10 17 15 28 18l8 2c3 0 5 2 7 3-2 2-3 5-6 6-12 7-25 5-37-2-13-9-20-21-19-37 0-19 11-32 31-37 22-6 43-2 62 13 19 14 22 40 9 62z"/>
    <path d="M786 758c-15 4-32 0-41-13-8-13-1-30 12-33 6-1 9 0 14 6l-6 2c-6 4-8 11-7 18s6 12 12 14c8 2 16 1 22-5 7-7 9-15 5-25-6-16-20-22-34-26-19-6-38-9-57-14-17-4-33-11-48-21l30 12 48 11c17 3 34 6 50 14 9 5 16 12 20 23 5 16-3 34-20 37zM764 658l-7 7c-15 7-30 10-46 6l-45-15-5-2c29 7 57 6 86 2h16l1 2z"/>
    <path d="m729 741-8-8c-10-26-28-43-51-57l-3-2v-1l1-1 40 19c15 8 24 21 25 39 0 4-3 7-4 11zM869 672c-1 3-1 7-3 9-7 9-17 13-28 14-12 2-38-1-51-7 26 2 50-6 74-16h8z"/>
    <path d="M857 644c-2 11-8 19-17 25a82 82 0 0 1-52 15c18-3 31-14 43-26l18-19c2-2 5-2 8-3v8zM734 633l-2 7c-6 9-15 14-25 15-16 2-31 1-45-6 16 2 31-4 46-10l19-7 7 1zM853 709c-3 6-8 7-13 8-16 1-29-6-42-14l-14-10c22 11 47 5 69 16z"/>
  </g>
  <g fill="#366">
    <path d="M314 644c15 24 37 35 64 39 31 4 60-5 89-16l-36 9c-28 6-56 6-82-8a60 60 0 0 1-34-46c-1-12 2-23 11-31 17-15 37-18 58-12 15 4 20 25 12 37-7 10-17 15-28 18l-8 2-6 3 5 6c13 7 26 6 37-2 13-8 20-21 20-37-1-19-12-32-32-37-22-6-43-2-61 13-19 14-23 40-9 62z"/>
    <path d="M361 758c16 4 33 0 41-13s2-30-12-33c-5-1-8 0-14 6l6 3c7 4 9 10 7 17-1 7-5 12-11 14-8 2-16 1-22-5-7-7-9-15-6-25 6-16 21-22 35-26 18-6 38-9 56-14 17-4 33-11 48-21-10 4-19 9-29 12-16 5-32 8-49 11s-34 6-49 14c-10 5-16 13-20 23-6 17 3 34 19 37zM383 658l8 7c14 8 30 10 45 6 16-3 31-9 46-15l4-2c-28 7-57 6-86 2h-15l-2 2z"/>
    <path d="M419 741c2-3 6-5 7-8 10-26 29-43 52-57l2-2h1l-1-2-41 19c-14 9-24 21-24 39 0 4 3 7 4 11zM279 673l2 8c8 9 18 13 28 14 13 2 38-1 51-7-26 2-50-6-73-16l-8 1z"/>
    <path d="M290 644c3 11 9 19 17 25 16 12 34 15 53 15-18-3-31-13-43-26l-19-19c-1-2-5-2-7-2l-1 7zM413 633l2 7c7 9 16 14 26 15 15 2 30 1 45-6-17 3-32-3-47-10l-19-7-7 1zM294 709c3 6 8 7 13 8 16 1 30-6 43-14l14-10c-22 11-48 5-70 16z"/>
  </g>
  <path fill="#CC9" d="M516 760v-11c1-8 3-16 6-22l12-18 8-13c2-5 3-8 4-18v-13c-1-11-4-20-9-28l-5-6c-3-1-6-3-7-5s-2-3-5-4-8-5-9-9l-1-3h-3c-3 0-7-1-10-3l-7-7c-1-1-1-2-4-2-5 0-12-4-14-9l-4-2c-5-1-10-5-12-10l-3-3c-5-1-9-5-11-10l-2-4c-2-2-6-9-6-12 0-1 0-2-2-2l-8-6-2-2-2-2-10-2c-4-2-8-6-9-9s-1-3-3-3l-10-4c-5-3-9-8-11-12 0-2-1-2-2-3-3 0-6-2-8-4l-3-5-1-1c-2 0-7-3-8-5l-3-4c-4-3-8-7-13-14l-6-7c-3-4-6-8-6-12l1-4 8-9c6-4 22-12 31-14 18-4 25-5 40-5l29 4a254 254 0 0 1 44 17 731 731 0 0 0 66 28l8 2 2-1c1-1 2-2 5-2l4-2 1-3v-3l-3-1-2 1 2-1 1-2-3 1-2 1 2-2c3-2 1-2-3 0l-3 1 3-2c3-2 3-3 0-1l-6 2 3-2 4-2-5 2-4 1 4-3c5-2 4-3-1-1l-6 2 4-2 3-2c-1 0-1-1-4 1-5 2-6 1-2-1l4-1-1-2-4 1-4 1 3-2 2-1h-3l-4 1 4-2 1-1h-3c-3 1-4 0-2-1l2-1h-4l1-1 1-1h-4l1-1 1-1-2-1c-1 0-1 0 0 0 0-1 0-2-2-3-1-3-1-4 1-2l1 1c0-2 1-1 1 1l2 1v-1l1 1c0 3 1 3 1 1l1-2v3l1 3c1 0 2-1 2-3v-1l1 2v4c1 1 1 0 1-2l1-3 1 3v4c2 1 2 0 2-2 0-3 0-5 1-4v8l1-1 1-3v-2c0-1 1-1 1 1l-1 3 1 3c1 1 1 0 1-2l1-4 1 4v4c1 1 1 1 1-2l1-3v3l1 5 1-3v-3l1 5v2l1-1c0-3 1-3 1 1-1 2-1 2 1 5l3 2h8l3-2 1-6v-2l1 2v2l1-4c0-4 1-5 1-1l1 2 1-4v-4l1 4c0 3 0 3 1 2v-4l1-4 1 5c0 1 0 2 1 1v-8l1 5 1 1 1-4v-4l1 4 1 3 1-1v-4c0-4 1-4 1 0 1 4 1 4 2 3v-6c1-1 1 0 1 2s0 3 1 2l1-4c0-2 1-3 1 0l1 1 1-2v-2l1 1 1 1v-2h1l2-1c2-2 2-1 1 1l-2 3v1c-2 0-3 1-2 2l1 1h-1c-2-1-3 0-1 1h-1l-2 1 1 1 2 1h-6l2 1c2 1 3 1 2 2l-3-1h-4l3 1c4 2 3 3-1 1l-4-1-1 1 3 2 4 1c0 1-1 1-5-1l-5-1 4 3 4 2h-1l-4-2c-6-2-6-2-1 1l3 2-5-2c-5-2-5-1 0 1 5 3 4 3-1 1l-4-1 3 2 2 2-4-2-3-1 2 2 2 1c0 1-1 1-3-1-3-1-3-1-1 1v1c-3-1-3-1-4 1s-1 2 0 3l1 2 2 2 7 2 2 1 5-1c15-3 30-9 57-23 27-13 29-14 44-19a136 136 0 0 1 78-4c9 2 23 8 31 14 5 3 10 8 11 11 2 4 0 9-5 15l-7 9-12 12-3 4-7 5-2 2c-1 3-5 7-10 8l-4 4c-1 4-5 8-9 10-2 2-8 5-11 5-2 0-2 0-3 2l-3 5c-3 4-8 6-13 7-4 0-5 0-5 2a19 19 0 0 1-11 8l-1 1c0 2-3 9-6 13l-2 4c-2 5-7 9-11 10-2 0-2 1-3 3-3 5-8 9-13 10-2 0-3 0-4 2-3 5-9 9-14 9-2 0-2 0-3 2l-7 7c-3 2-6 3-10 3h-3l-1 2c-2 5-6 9-10 10l-3 2c-2 3-5 6-8 7s-4 2-8 9c-5 11-8 25-6 39l2 10c1 5 4 12 9 18l13 21c3 7 6 18 7 28 0 4 0 4-2 4s-5-2-10-6l-5-5a27 27 0 0 1-10-11l-3-13-5-8c-6-10-11-22-13-28l-5-28-1-9-1-15-1-16c-1-5-2-18-1-29l-1-25-2 23a266 266 0 0 1-2 45c0 14-3 37-7 54-2 6-7 18-13 28l-5 6-1 6c-2 11-5 16-13 21l-3 2-3 4c-5 5-8 6-10 5zm41-68h-1v1l1-1zm2-4c0-1-1-1 0 0v1-1zm29 0s0-1 0 0h-1 1zm4 0c-1-1-1-1 0 0v1-1zm0-2-1-1c-1 0-1 0 0 0v2l1-1zm-35-1-1 1c-1 0-1 0 0 0l1-1zm31 0c0-1 0-1 0 0h-1v-1 2l1-1zm-27 0-1-1v1h1zm-5-1h-1v1l1-1zm36 0v1-1zm-1-1v-4l-1 1v-1l1-2-1 1-1 1v-1l1-4-2-6-1-4-3-7-3-6 2 12a64 64 0 0 0 1 10l1 3h2l-1-1s-1 0 0 0h1v2h-1v1-1h-1v2l1 1c-1 1 0 2 1 0v-2h1v2l1 1h1v2h1zm-2-7h1-1c-1 0-1 0 0 0zm-1-3h1v1l-1-1zm-31 8h1v-2h1-1l-1-1v-1 2h1l-1 1h-1v1l1 1-1 1h1v-2zm4 1v-1l1-4c1-3 1-3-1-4h-1 1c2 0 2 0 2-3l1-4a207 207 0 0 0 2-16 354 354 0 0 1-9 23v3l1 1v1l1-1 1 2v2l-1 2 1-1v1h1v-1zm0-5v-1l1 1h-1s-1 0 0 0zm-2-1 1-1v1h-1zm-1-3h1v1l-1-1zm30 9h-2l1 1 1-1zm4-2v1-1zm-42-3v1s0 1 0 0v-1zm48 0-1 1 1-1zm-2-1h-1l1 1v-1zm-46-2c0-3 0-3 0 0v2-2zm47 1v-2c0-1-1 0 0 0v-1h-1v2l1 1c0 1 0 1 0 0zm-46-2v-1 2-1zm4-1h-1s0 1 0 0h1zm38-2v1s0 1 0 0v-1zm-41-3-1-5v-1l-3-11-5-10 2 4c2 7 5 17 5 23l1 4 1-4zm45 2v-2l1-4 4-18 2-4c0-1 0-1 0 0-2 1-5 8-6 11-2 6-4 17-2 16v3l1-2zm-42 0v-1l2-5v-2h1v-1l-1-1h1l1 1v-1l-1-1h1c0 1 0 1 0 0v-2h1l-1-1c-1 0-2-1-1-2v-1l-1-1h1v-1h-1l-1-1 1-1v-1l-1-1v-1l-1-1-1-2v-2h-1l1-2h1-2v-3l-1-1v-1h1v-1l-1-1v-1h1l-1-1c-1 1-3 0-3-1h2l-1-1h-3v1l1-2v-1h3l-2-1h-1l-1-1-1-2 2 2h2l1-1h-2l-2-1-4-4-7-5-2-2-3 3-2 3 2 1c3 0 4 1 5 3 3 3 3 5 2 9l-1 2 3 3a53 53 0 0 1 14 31v1l1 2v1c1 0 1 0 0 0zm1-3v-1 1zm-1-1v-1h1l-1 1zm1-2c1 0 0 0 0 0-1 0-1 0 0 0zm0-4h1c1 0 0 0 0 0l-1 1v-1zm1-2h1l-1 1v-1zm-1-3h1c1 0 0 0 0 0v1l-1-1zm-8-22v-1h-1l2 1v1l-1-1zm2 0 1-1v1h-1zm-2-2c1-1 0-1-1-1l1-1v2zm-2-5v-1h1c1 1 1 1-1 1zm46 44v-1l1-1 2-12c2-5 5-13 8-16l4-5c3-3 3-3 2-5-2-6 2-13 7-13h2l-2-3-2-3-2 1-6 5-5 4-3 1v1h-2 3l-2 2h-1l1 1 4 2-1 1v-1h-2v-1l-1 1h-1v1l1 2h-3 1l1 1-2 1v1c1-1 1 0 1 1-1 1-1 2-2 1v1l1 1s1 0 0 0l-1 1v2l-1 1v2h-1c1 1 1 2-1 2v3h-1l1 2-1 1c0-1 0 0 0 0l1 2h-2l1 1h1l-1 1-1 1h-1 1l2 2h-1l-2-1 2 4 1-2v3c1-1 1 0 1 1-1 1-1 1 0 0h-1l-1 1 1 1v2l1 1v2l1-1zm0-4v-1 1c0 1 0 1 0 0zm-4-7v-1l1 2-1-1zm2-4h1c1 0 0 0 0 0v1l-1-1zm9-20v-1 1zm-1-2 1-1c1 0 1 0 0 0v1l-1 1v-1zm-2 0v-1l1 1h-1zm2-2v-1h2v1c-1 1-1 0 0 0h-2zm1-5v-2l2-1h-1l-1 1h1l1 2h-2zm1-1h-1v1l1-1zm-42 38-1 1h1v-1zm5-11 3-10v-6l-1-1h2v-1l-2-1c0-1 0-1 0 0l1-2v-4c0-1 0 0 0 0h1l-1-1v-2h1l-1-1h-2l-6 1h-4l1 3 3 9a55 55 0 0 1 4 20l1-4zm25-9 2-9 2-4 1-5-4-1-6-1h-2v1c-1 0-1 0 0 0v4l1 3h-1v2l1-1-1 2h-1l1 1h1l-1 1v3l-1 1 1 1v3s1 0 0 0l3 10c1 2 1 2 1-2l3-9zm-28 11h-1l1 1v-1zm28 0h-1v1l1-1zm-51-28c-1 0-1 0 0 0l-1-4c-1-3-6-4-9-2l-1 1h2l6 4 2 3h1v-2zm78-3 4-2 2-1-5-1c-4 0-6 3-6 7 0 3 0 3 2 1l3-4zm-84 4-1-1c0 2 0 2 1 1zm86-1h-1v1l1-1zm-91-12c0-3-1-4-3-6l-8-1-3 1 3 1 5 2c2 1 5 5 5 7l1-4zm98 0c1-2 4-4 7-5l3-1-3-1c-3-1-5 0-8 1-1 2-3 5-2 7 0 3 1 4 1 2l2-3zm-5 1v-1h-1l1-1 1-2c2-4 7-6 12-5h2l-1-3c0-2-2-4-3-5l-2-3a133 133 0 0 0-11 14h1l1-1-2 3-1 2v-1h1l1 1h-1l1 2 1 2v-2zm-1-4 1-1v1h-1zm-99 5-1-1-2 1 1 1 2-1zm11-2 1-2-2-1h-1 1v-2l-1-1 1 1 1 1v-1l-1-1v-2l-6-6-4-5-6 11h3c6-2 12 3 12 9v2l2-3zm-1-1 1-1v1h-1zm102 3c0-1-1-2-2-1s-1 2 0 1h2zm-69-3 1-1s1 0 0 0h2c2-1 2-2 0-3h-1 1v-1l1-2h1-2l-1 1-2 1h-1l2-2c2 0 2-1 0-2 2-1 2-2 1-2l-1 1-2-1h2v-1l-1-1h3v-1h-2l1-1h1l-1-1c0 1 0 1 0 0h1l1-1c1-1 1-1 0 0l-2-1 1-1 1-1-2 1 1-2v-3c2-1 2-2 1-3-1 0-1 0 0 0v-2c-1-1 0-2 1-1v1-2l-1-1-1-1h1l1-1c0-1 0-1 0 0h-1l-1-1-1-1h1l1-1-1-1v-1l2-1v-1l-2 2-2 2 1-1v-1h1l-1-1h-1 2v-2c0-2-1-2-1-1s0 1 0 0v-3l-3-3-1 6 1 4-1 1-1 1-2 3c-2 6-4 17-4 25l-1 6 1 1c3 2 9 3 9 2zm0-3c1-2 2-2 2-1l-1 1-2 1 1-1zm-2-1 1 1h-1v-1zm2-4h1c1 0 0 0 0 0l-1 1v-1zm0-9v-1h1v1h-1zm-1-2 1-1v1h-1zm2-1v-1h1v-1 2h-1zm-1-3 2-1c1 0 1 0 0 0l-1 1-1 1v-1zm3-2v-1h1l-1 1zm-3-1h1l1 1h-1l-1-1zm1-1h2l-1 1-1-1zm0-2v-2h-1c1-1 1-1 2 1v1l-1 1c1 0 0 0 0 0v-1zm2 1v-1l1 1h-1zm-1-4-1-3 1 1v1l1 3-1-2zm-2-4 1 1h-1v-1zm22 35h-1 9l3-2-2-20-4-13-2-2-1-4v-7l-1 1-2 2v5c0 1 0 1 0 0h-1l1 1h1-3v1h1l2 1c1 2 1 3-1 1l-1-1v1h-1l1 2v-1l1 1 1 1 1 1-2-1-1-1-1 1-1 1v3h1l1-1v-1h-2l2-1h1v1l-2 3-1 1v1l1 1v2l1 1-1 1h2v3l-1-1-1 1 2 1c1 0 0 0 0 0v2l-1-1-1-1v1l1 1 2 1c0-1 0-1 0 0l-1 1v2c1 1 0 1-1 1v1l2 1h-3l3 2 1 1-1 1-1-1-1-1h-2 1v2l1 1-1 1-2-2v-1h1l-1-1c-1 1-1 2 1 4s5 4 4 2zm1-2h-1l-1-1h1l1 1c0 1 0 1 0 0zm2-1v1-1zm-3-4h1c1 0 0 0 0 0v1l-1-1zm0-2v-1h2c0 1-1 2-2 1zm0-3 1-1v1h-1zm0-4v-1 1c-1 0 0 0 0 0zm0-4h1c1 0 0 0 0 0l-1 1v-1zm0-2c1 0 1 0 0 0v1-1zm-3-2 1-1v1h-1zm3 0v-1h1l-1 1zm-1-2h1l-1 1v-1zm-1-1v-1l1 1h-1zm2 0v-1l1 1h-1zm-2-1 1-1v1h-1zm2-2v-1l1 1h-1c0 1 0 0 0 0zm-17 27-1-1v1h1zm1 0v-3s-1 0 0 0l-1 1 1 1s1 0 0 0v2-1zm-18 0v-1l-1-1v-1h1v-5h1l-1-1-1-1v-1c-1 0-1 0 0 0h2-1v-2l1-1h-1l1-2v-1h-1v-1h1v-3l1-1-1-1c0 1 0 0 0 0h1v-3l1-1 1-1v-2h-4c-2 1-2 1-4 6l-5 15-2 2 2 2 8 5h1zm-2-8 1-1v1h-1zm4-20h1l-1 1v-1zm29 28v-1l-1 1h1c1 0 0 0 0 0zm20-2 5-3 1-2-2-5-5-16c-1-1-1-2-3-2h-4v1l1 1h1l-1 1v1c-1 0-1 0 0 0h1v1l-1 1h1l1 1h-1l-1 1h1v1h1l1 1-1 1v1h1l-1 1-1 1h1v3h1v1l-1 1h1c1 0 0 0 0 0l1 1-1 1h-1l1 1v8l4-2zm-3-6v-1l1 1h-1zm-89-2c0-2-4-5-6-6l-8 1-2 2 4 1c5 1 10 4 12 8l1-2-1-4zm134 1 10-4-1-2-5-1c-5 0-8 2-10 6v6l2-1 4-4zm-141 4-1-2-1 1-1 1h3zm66 0h-1v1l1-1zm12 0h-1v1c1 0 2 0 1-1zm68 0-2-2c-2 1-1 3 1 3l1-1zm-136-3v1h1l-1-1zm55 1c0-1 0-1 0 0v1-1zm68 0h-1v1l1-1zm-54 0h-1 1zm53-1v-1l-1 1h1zm-94-3h-1c0 1 0 1 0 0h1zm-29-2-1-1c2 2 2 1 1 0-1-2-1-2 1-1l1 1-1-1-1-2h1l1 1 1-1h-1l-1-1 1-1v-1l-2-2-9-9-9 16 1-1 9-1c3 1 6 3 7 5l1 1v-2zm0-7 1-1v1h-1zm130 4c3-2 8-2 11 0l2 1-8-16-1-1-3 2-8 10s0 1 0 0h-1l1 1h1l-1 1c-1 0-1 0 0 0l2 1-1 1v-1c0-1 0-1 0 0h-2l1 1 1 1h-1v1l1-1 1-1v1l-1 1 1 1c1 0 1 0 0 0v1l1-1 4-3zm-127 4h-1s-1 0 0 0h1zm104-8c6-7 6-6 5-9-1-2-2-2-3-2-2 0-1-1 1-3l7-8-1 1-9 8-10 1c-7 0-8 0-10-2l-5-1c-1 1-2 0-2-1v-6l4-8c2-2 2-2 2-5-1-4-1-5-2-4l1 1h-1l-1 1-3 6-4 6 2 4v7l5 1 6 1 6 1 4 1-3 1c-2 0-2 0-1 1 0 0 1 0 0 0l-1 1v1c1-1 2 0 1 1l1 1h1v1h1-3l2 1 2 1-1 1v1-1l-1 1 1 1 1 1c0 1-1 1 0 0h1l-2 1h1l1 1v1h1s1 0 0 0v1l6-7zm-82 6v-1h1l-1-1v-1h1l1 1v-2l1-1h-1l1-2 1-1-2-1h1l1-1v-1h1v-2c-1-1-1-2-3-2h-1l4-1 5-1 7-2 5-1v-6l2-3-1-4-1-1-1-3c-1-2-3-3-3-5l-2-2v-2l-1 3c-1 4-1 5 1 7l5 8h-2l-2-1v-2c-2 0 0 3 2 4 3 3 2 7-2 7h-3c-3 2-6 2-13 2l-8-1-9-8-1-1c-1 1 4 6 7 9l2 2c-2 0-2 0-3 2-1 3-1 3 2 7 6 8 8 9 9 9v-1zm1-5c-1-1-1-1 0 0v1-1zm-48-2-4-4h-7c-3 1-3 1 0 2 3 0 7 2 10 5l2 2v-1l-1-4zm175-1 6-2h2l-3-1h-7c-3 1-5 4-5 7v3l2-3 5-4zm3 4h-2v1c1 1 3 0 2-1zm-185 0-2-1c-1 1 0 3 1 2l1-1zm32 0h-1v1l1-1zm-22-2 1-3c1 0 1 0 0 0v-2l1-2v-1l1-1v-1l1-1v-1s0-1 0 0l1-1v-1l-6-3-6-3-1 1-7 12h1c3-1 5 0 8 1s4 3 5 5 1 3 1 1zm168-5c2-2 4-3 8-2h2l-8-13a70 70 0 0 0-13 6l1 1c0 1 0 1 0 0h1v3c0-2 1-1 1 0v1l1 1v4h1v1l-1 1h1l1 1v1l2-2 3-3zm-187-4-2-6-6-2h-3l-3 1 3 1c5 1 9 4 10 8l1 1v-3zm71 3h-1l1 1v-1zm60 0h-1c-1 0 0 0 0 0l1 1v-1zm71-2c2-3 6-6 11-7 2-1 2-1-2-2-5-1-10 2-10 7v5l1-3zm-199 0h-1v1l1-1zm-11 0c1-1 0-2-1-2-2 0-2 1-1 2h2zm218 0v-2l-1 1v1h1zm-139 0-1-1v1h1zm60 0c0-1 0-1 0 0h-1 1zm-62-1h-1l1 1v-1zm-66-3v-1l-1-1-1-1h2v-2l1 1h1c1 0 0 0 0 0v-1h1l-2-1h-2 2l1-1h2v-2h1l-5-4-5-4-2 2-9 9h2c3-1 5 0 8 1l4 5h2zm44 0v-3l-2-3-4-4-3-1 2-2 7-6 7-5c2-1 2-1 1-2 0 0 0-1 0 0l1-2v-4c0 1 0 1 0 0v-1c1 0 1 0 0 0l-1-1c1 0 1 0 0 0l-2 1v1l-2 2c-2-1-16 19-15 21l3 4 6 4 2 1zm7-32h1-1zm146 30c3-3 6-5 11-4h3l-10-10c-1-1-1-1-6 3l-5 4h1l1 1c-1 0-1 0 0 0v1c0 1 0 1 0 0 1-1 1 0 1 2l1 1 1-1v1c-1 1-1 2 1 2 1-1 1 0 0 0l-1 1 1 1 1-2zm-1-2h1-1c0 1 0 1 0 0zm-2-2h1c1 0 0 0 0 0h-1zm-34-1 2-2a103 103 0 0 0-19-26v3h2c1 0 1 0 0 0l-2 1-1 2h1c0-1 0-1 0 0v3c0-1 0 0 0 0l1 2 7 5c4 2 7 5 7 6 2 1 2 2-1 3l-3 2-3 4-1 2h1v1h1l3-2 5-4zm-9 4v1-1zm-7-28v1-1zm5 30h-1 1zm-104-1v-1h-1l1 1zm27-2 3-2-3-4-2 2c-3 5-11 5-16 1-2-1-4-5-4-7v-1l-1 1h-2l-1 1c0-1 0 0 0 0v1c-2 0 6 7 10 8 3 2 12 2 16 0zm67 1c3-2 8-5 10-8v-1h-2v-1h-1l-1-1c0-1-1-1-1 1 0 3-2 6-5 8l-5 1-6-1-3-3c-1-2-2-2-2-1l-2 1c-1 1-2 2-1 3l4 1c5 2 11 2 15 1zm-49-3v-1 1c0 1 0 1 0 0zm-108-2c0-4-2-6-5-7l-7-1v1c4 0 9 3 11 7l1 2v-2zm83 1c2-1 4-3 3-4-1 0-1 0 0 0h-2l-2 1c0-1 0 0 0 0v1-1h-1l-2 1h-3v-2l-1-1h-1l-1-1-1-1h-1l2 5c2 3 7 4 10 2zm74 0 2-4v-2 1l-1-1v2h-2l-1 1v1h-5l-2-1-2-1-1 1v1c2 3 8 4 12 2zm78-5 8-3 1-1h-4c-5 0-9 3-9 8v2l2-2 2-4zm-243 3-1-1v1h1zm248 0h-1l1 1v-1zm-10-1v-1l-1 1h1zm-74-1v-1l-1 1h1c0 1 0 0 0 0zm-155-2h1c1 1 1 0 1-1l-1-1h-1c-1-1-2 0-1 2 1 1 2 2 1 0zm118-1c1-1 6-9 7-13l1-8-1 1v2l-1 1h1l-1 1-1 2c0 1 0 1 0 0l-1 1-1 1-1 1-1 1-1 1v1l-2 1c-1-1-1 0 0 0v2h-1l-2-1 1-1-3-2h1l-1-1-1-1v1h-1v-2l-2-2-2-2v-1l-1-1v-1l-1-2 1 8c2 4 6 12 8 13 1 2 2 2 3 1l3-1zm-4-4h1c1 0 0 0 0 0h-1zm5-5 1-1v2l-1-1zm112 8 1-1c1-1 5-2 8-1h4l3-2 1-2v-1h1v-2l1-3 1-2h1-1c-1 0-2 0-2 2v2h-1v1l-1-1v-1 2l-1 1v-2l-1 1c0 1 0 0 0 0l-1-2h-1v1l-1-2-1-1v1l-1 2v-2c-1-1-2 0-1 1l-1 2h-1c0-1-1-1 0 0l1-1h-2l-2-1v-1l-1 1c0 2 0 3-1 2h1v-1l-1 1h-1v-2l-3 1h-2c1 0 1 0 0 0h-1v1h1l-1 1 1 1v-1l1 2v1c1 0 1 0 0 0v-1l1 2v4l-1 1 1 1c0-1 0-1 0 0v1l1-1 2-2zm-2-2h1v1l-1-1zm10-5h1c1 0 0 0 0 0v1l-1-1zm-4-1h-1v-1h1l1 1h-1zm5-1h1s1 0 0 0l-1 1v-1zm-195 11 1-2 1-1 1-1v-2l4-4v1l1-1 2-1h-3v-1h1l1-1h2v-1c1-1 1-1 0 0h-1l1-1h1c0 1 0 0 0 0l1-2v-1l-1-1-6 3-16 11c-1 1 0 1 4 3l5 2h1zm4-9h1l-1 1v-1zm3-1v-1l1 1h-1zm-2 0v-1l1 1h-1c-1 0 0 0 0 0zm2-4 1 1h-1v-1zm1 0 1-1v1h-1zm138 12 4-2-5-4a76 76 0 0 0-19-11l-2-1 1 2 2 2 1 1 1 1s0 1 0 0l-1 1h1l1 1h3v1h-3v1h3v-1l1 2v1l1 2 1 1v2l1 1c0 1 2 3 3 2l6-2zm-12-7v-1l1 1h-1zm-3-5h1v1l-1-1zm-1 0h1l-1 1v-1zm-92 12-2-1 1 2 1-1zm10 1h-1c-1 0-1 0 0 0h1zm55-1-2-1 1 2 1-1zm-149 0 1-2c0-1 0 0 0 0l-1 1 1-1 1-2v-2l1 1v-2c2 0 2-1 1-2v-1l-1-1v2-1h-1c-1 0 0 0 0 0l-2 1h-2v-1h1v-1l-2 1-1-1v-1l-1 1 1 1h-2c-1-1-2 0-2 1h1v1c-1 1-2-1-2-2h-1v2l-1-1v-3c1 0 1 0 0 0 0-1-1-1-1 1v1h-1l-1-1c-1 0-1 0 0 0v2c-1 1-1 1-1-1v-1l-1 1v2c1 0 1 0 0 0l-1-2v-1 2l-1 1v-2s0-1 0 0h-2c1-3 0-4-1-4v1l1 2 1 2v1l1 1v1l1 2 3 2h4c3-1 4-1 6 1l3 1h1zm-6-9h2l-1 1-1-1zm3 0h1l-1 1v-1zm-10 0h1-1zm75 8c1 0 0 0 0 0h-1l1 1v-1zm167-1-1 1h1v-1zm-48-1v1-1zm-115 0 4-2c2-1 3-2 7-2 5 1 7 1 10 3h3l-1-1-1-1-1-1c-2 0-2-1 0-1h2l-1-1v-2h1l-1-1h-1l1-1v-4c-1-1-2-2-1-3v-1l-1-1v-1 1h-1l-1 1-2 6-2 5-3 1-6 1c-3 1-6 4-6 5h-1v1l2-1zm21-14h1l-1 1v-1zm3 14h1c0 1 0 1 0 0h-1l-1 1 1-1zm76 0v1-1zm-25 0-1-1v1h1zm23-2c-2-3-6-4-10-4l-3-1-3-7-2-6-1 1-1 2-1 2v3l-1 1h1v6h1v1l-1 1v1h-1v1h1l3-1c5-3 12-2 17 1 2 1 3 1 1-1zm-20 0h1v1l-1-1zm0-11v-1 1zm84 12-1-1v1h1zm-177-1h-1l1 1v-1zm-19 0v-1h1v-1l-1-1v-1l2 1c0-1 0-1 0 0h1v-2c-1 0 0 0 0 0l1-1v-1l-1 1c1 0 0 0 0 0v-1l-1-1v3l-1-1-4 1-1 1c1 0 0 0 0 0h-1c-1 1-1 1 1 3 3 2 3 2 4 1zm-1-1v-1 1c0 1 0 0 0 0zm173-1v-2h-1l-2-1-1-1h-3l-1-2h-1l-1 1v-1h-1l1 1v2h1c1-1 1 0 1 2v1h2v1l1 1c1 1 1 0 5-2zm-4 1v-1l1 1-1 1v-1zm-1-2v-1 1c0 1 0 1 0 0zm-2-1 1-1v1h-1zm-2-3c0-1 0-1 0 0h2c1 0 0 0 0 0h-2zm-17 5c-2-1-2-1 0 1l1 1-1-2zm-88-1-1 1h1v-1zm52 0h-1c-1 0 0 0 0 0h1zm-52-3v1c-1 0 0 0 0 0v-1zm52 1-1-1v1h1zm-141-1h-1c-1 0 0 0 0 0h1zm133 0v1-1zm97 0h-1c0-1 0 0 0 0h-2 3zm-249-1h-1l1 1v-1zm93 0h-1v1l1-1zm21-1c0-1 0-1 0 0v2h1l-1-2zm-105 1h-1l1 1v-1zm144 0-1-1v1h1zm22 0h-1l1 1v-1zm-119 0-1-1v1h1zm35-1h-2 2zm87 1-1-1h-1l2 1zm-123-2c1 0 1 0 0 0l-1 1 1-1zm-55 0h-1l1 1v-1zm154 0h-1v1l1-1zm21 0-1-1-1 1h2zm-97-1-1 1h1v-1zm16 1-2-1v1h2zm-36-1h-1l1 1v-1zm153 0h-2v1l2-1zm-150 0h-1c-1 0-1 0 0 0h1zm112-1v1-1zm-155-1-1-2-1 1 1 2 1-1zm61 0h-2 2zm172 0c1-1 0-2-1-2s-2 1-1 2h2zm-75 0-1-1v1h1zm-132-1-2-1c-1 1 0 2 1 2l1-1zm37 1-1-1v1h1zm97-1h-1v1l1-1zm48 0c-1-2-3-2-3-1l2 2 1-1zm-89-1 5-5 4-5 2-5c0-4 0-4-2-3v2l-1 1c-1 0-1 0 0 0s1 1-1 2l-1 1h1v-1l-1 2-2 2h-1l-2 2-1 1h-1l-1 1v1l-2 1v-1l-1-1-1-1h-1l-2-2-1-1h-1v-1l-2-2c1 0 1 0 0 0s-1 0 0 0l-1-1-1-2-1-1c1-1-1-3-1-2l-1 2c0 3 1 5 5 9l3 5c2 3 7 4 10 2zm-109 0c0-2-2-4-3-5-4-4-10-5-14-1l-4 5 3-1c3-2 3-2 8-2s7 1 9 3l1 1zm10-3c4-1 7-2 11 0l-4-4-4-1c-3 0-6 2-8 5l-1 3 1-1 5-2zm196 1c-2-4-6-7-10-6l-6 4c-1 1-1 1 1 1 2-2 10-1 14 2 2 1 2 1 1-1zm10-1h12l4 2-1-2c-3-5-9-7-13-5l-6 6-1 2 1-1 4-2zm-167 2-1-1v1h1zm2 0v-1h-1v1h1zm96 0-1-1v1h1zm14 0v-1c0-1 0-1 0 0v1zm2 0v-1l-1 1h1zm-196-1-2-2c-1 0-2 1-1 2h3zm9-1c-1-6-5-10-10-10l-6 2c-4 2-4 2-1 2 6 0 13 2 16 6l1 2v-2zm183 1v-1 1c0 1 0 1 0 0zm88 0c1-1 0-2-1-2s-2 1-1 2h2zm-9-3 4-2 8-2h5l-2-1c-5-4-12-3-16 1l-2 6v2l1-1 2-3zm-203 2v-1c-1-1-2 0-1 1h1zm60-1-1-1 1 3v-2zm83 1c0-1-1-2-2-1v2l2-1zm-61-1h-1v2l1-2zm-85-4 6-1h3l-8-2c-4 0-6 2-7 6h1l5-3zm152 1c-1-3-4-4-7-4l-7 2h3c3 0 6 1 10 4l2 1-1-3zm-184 1s-1 0 0 0l1-1 1 1h4c2-2 5-3 7-3l8 2v-1l2 1v-1h1c1 1 1 1 2-1 3-3 8-4 13-3l2 1v-1h-1 1l1 1 1-1c2-3 7-5 11-4l3 1v-1h1l1-1v-1l1 1c1 0 1 0 0 0v1c0 1 1 1 4-2l10-9 2-3-6 4a137 137 0 0 1-82 14c-22-3-36-10-55-25a259 259 0 0 0-56-32l6 7c4 3 4 3 7 3 4 0 6 1 8 4l1 1h1v-1l1 2 2 1c3 0 6 2 8 4 0 2 1 3 3 3l1 2c-1 1-1 1 2 1 5 0 10 2 14 5l4 8 1 2h1l1-1c0-1 0 0 0 0v3h3c5 0 11 2 13 7l2 2 1-1 1 1v1-1h1v1l-1 1v1c1 0 1 0 0 0v1l3-1c5-1 9-1 13 3l2 1h1l1 1 1-1v1h5c5-3 10-2 14 2 2 2 3 2 2 0zm4 0v1-1zm-90-39v-1l1 1h-1zm293 39h1c0 1 0 0 0 0 1-2 1-2 2-1l1 1c0 2 0 1 2 0 3-4 9-5 13-3l5 2c0 1 0 1 0 0 0-3 0-3 2-2h1v-1 1l3-2c3-3 8-4 14-2h2-1l-1-3 1-1v1h1v-1l1 1c1 1 1 0 2-2 3-5 8-7 14-7h3v-2h-1 3v1l1-2c1-5 4-9 9-12l7-2 4-1c1 0 0 0 0 0v-3 1c1 1 3 0 3-1 2-4 5-6 10-6l1-1v-2l2 1v1l1-1c0-3 4-5 8-5l3 1 5-5 5-6-2 1-16 8a135 135 0 0 0-38 23l-24 15a132 132 0 0 1-111-4l-8-3 1 2 14 11c0-1 1-2 2-1s1 1 0 0c0 0-1 0 0 0l1 1c1 0 0 0 0 0h-1v1l2-1 7-1c3 1 7 4 7 6v1l1-1 1-1c1 0 0 0 0 0s0 1 0 0l-1 1 3-1c5-1 10 0 13 3l2 2h2c1 1 1 1 3-1 5-2 10-1 13 2 1 1 2 2 2 0zm-17-2v-1 2-1zm40 0v-1l1 1h-1zm68-38 1-1v1l-1 1v-1zm-3 0 1-1-1 1zm-315 39v-1 1c0 1 1 1 0 0zm72-7 3-1h-2c-3-1-7 1-9 4-1 3 0 3 2 0l6-3zm115 4c0-3-5-6-9-5h-2l3 1c3 0 4 1 5 3l3 2v-1zm-114 0-1-1c-1 0-2 1-1 2l2-1zm107 0h-2l1 1 1-1zm-206-3c0-5-3-8-7-10h-11l-2 1h2l9 3c3 1 7 5 8 7 1 3 2 2 1-1zm304 2 3-5c4-3 7-5 13-5l3-1-2-1h-11c-5 2-7 6-7 11 0 2 0 3 1 1zm-148-3 5-4c3-3 6-6 7-9v-3c1-2 0-2-1-1l-1 2-1 2v1l-1 1-2 1-1 1v1h-1l-2 2-3 1-1 1h-5s0-1 0 0l-1-1h-2v-1h-1l-1-1h-1l-4-4-1-1v-1l-1-2-2-3v3c0 4 3 8 7 11l4 4c2 3 3 3 6 3 2 0 2 0 4-3zm-165 2v-3c-1-1-3-1-3 1l2 2h1zm324 0c1-2 0-3-1-4-2 0-4 3-2 4h3zm-256-2c0-1 0-1 0 0h2l-1-2v-1l1 1v-3l1 1h1v-1h-1l1-1-2-2-2-2-1 1-5 9h6zm1-5v-1l1 1h-1zm190 5-4-8-2-2-2 2-2 2c-1 0-1 0 0 0l1 1 1-1c1 0 2 0 1 1h-1l1 1c0-1 0-1 0 0l1 1v1h-1l1 1c0 1 0 1 0 0l-2 1h8zm-214-2h-1l1-1h1v-2l1-1v-2l1 1h2l-1-2-2-2-1 1-6 9h3l2-1zm227 1h-1 1zm9 0-7-10h-1l-1 2-1 1 1 1h1l1-1v1s0 1 0 0v1s0 1 0 0l1 1h1v1l-2-1h-3 2l1 1 1 1c0 1 0 0 0 0h1v1c1 0 1 0 0 0v1h5zm-234-1v-1l-1 1h1zm189-1-1-2h-1v-2l-2 1v1h1v1l-1 1c-1 0-1 0 0 0l1-1v1l2 1h2l-1-1zm-149 1 1-1h2-1v-1h-1v-1h1l-1-2h-1v2h-1l-2 3h3zm164 0 1-1h-2c0 1 0 2 1 1zm24 0v-1l-1 1h1zm-24-2h-1l-1-1 1 2 1-1zm-224 0v-1l-1 1h1zm21-1h2-3v1l1-1zm247 1v-1l2-1h-4c0 1 0 1 0 0h1v2h1zm3-2 1-1h1l1 1 4-2a26 26 0 0 0-5-8v-1l-3-3c-2-3-2-3-3-2l-2 4-1 2-1 1h1l1-1h3-2c-2 1-1 2 1 1h2l-1 1h-2v1h1l-1 2h1v-1c1-1 1-2 2-1l1-1c0-1 0-1 0 0l1 2 1 1-1 1 1 1h2-3v1l-1 1c-1 0 0 0 0 0v1l-1 1h1l1-1zm0-7v-1l1 1h-1c-1 0 0 0 0 0zm-2-3v-1l1 1h-1zm-3-1h1-1zm-267 11-1-1h-1c-1-2-2-2-2-1h-1l-1-1h1l1-1h1l-1-1h-1l1-1c0 1 0 1 0 0h1l1-1v-1h1v1-1h1c1 0 3-1 2-2-1 0-1 0 0 0l2 1h1v-1h-1c-1-1 0-1 0 0l-1-2-2-3-1-2-4 5-1 1-1 3-3 3-1 3 1 1h3l1-1h1l1 1c0 1 0 2 2 1h1zm-1-9v-2 1l1 1v1l-1-1zm2-2h1-1zm-4 11h-1v1l1-1zm28 0c1 0 0 0 0 0v1-1zm52 0 2-1 2-1h1l1-1 1-1v2l1-2 1-1v2l1-1h3l-1-1-2-1h3v-2c1 0 2 0 1 1l2-2h-1c0 1-1 1 0 0h1l1 1v1l1-1c-1-2 0-2 1-1v1c-1 1-1 1 0 0v-2h-2l1-1c1 0 1 0 0 0h-2c0 1 0 1 0 0v-1l1-2h-1l-1 1h-1v-1l-1 1v-2l-1 1h-1l1-1 1-1v-1l-8 8-6 9h1zm8-6h1-1zm3-2h1-1c0 1 0 0 0 0zm2-4h1c1 0 0 0 0 0v1l-1-1zm103 12-3-5c-3-4-9-11-10-10l1 1v1l-1-1h-2v2h1-2l-2-1v1l-1 1v1c1 0 1 0 0 0v2l1 2h2c1 0 1 0 0 0s-2 0-2-2c0-1 1-2 2-1l-1 1 1 1h1v-1l1 1v1h-1l1 1 1-1h1v1h-2v1h2l1 1c1 0 1 0 0 0v-1c0-2 1-1 1 1h1c1-1 1-1 1 1h1l1 1 3 1h1v1h1l1-1zm-13-7 1-1v1h-1zm-5-4 1-1v1h1-2zm98 11h-1l1 1v-1zm-208-2-3-1c0 1 0 2 1 1l2 1 1 1-1-2zm-64 1h-1l1 1v-1zm2 0-1-1v1h1zm54-2 3-2v-1l1 1 2-2c0-1 0 0 0 0h-1l2-1h1l-1-1v-1h2v-1c-1-1-1-1 1-1 1 1 1 1 0 0v-1l1-1v1c-1 0-1 0 0 0h1c0 1 0 1 0 0 1 0 1 0 0 0l1-1v-1h-1 2c0 1 0 0 0 0l1-1v-2l1 1v1-3h2v-1h1l3-3 1-1c1 0 1 0 0 0l1-1h-2v-3h1-2l-2 1 1-1v-1l-2 1c-1 2-2 1 0 0v-1h-2c-1 0-1 0 0 0 1-1-1-1-4 1-7 4-17 12-23 20-3 2-3 4-1 5 3 3 7 3 12 0zm19-18 1-2v1l-1 1zm131 19v-1l-2 1-1 1h1l2-1zm15 0 4-3c0-2-9-12-15-17-6-4-13-8-14-7l-1-1-1 1v1h-1l-2-1v2l-1-1v2l-1 1 2 3 2 2 1-1 1 1v1l-1 1h1l2-1v3-2l1 1v2c-1 0-1 0 0 0h1l1 1h1l-1 1v1h1l1-1c1 0 0 0 0 0 0-1 0-1 0 0v2c2-1 3 0 1 1h1l2 1h-1l-1 1h1v1l1 1h1s0 1 0 0l1 1c0 1 2 2 3 1v1l2 1h8zm-222 0v-1h-1l-1 1h2zm75-2 2-2v-1h1l-1-1 1-2v2l2-2h-1l-1-1h4l-2-1h-1 1c1-1 2-1 2-4 0-1 0-1 0 0s-1 1-1-1-2-1-2 0h-1c-1-1-14 10-14 12 1 4 7 4 11 1zm5-11v-1 1c0 1 0 0 0 0s-1 0 0 0zm191 13h-1v1l1-1zm-236-1 4-2v-1h2c1-1 1-1 0 0l-1-1h1v-1c-1-1-1-1 0 0l1-1 1-1h1v-1h1l-1-2h1v-1l-1-1h3v-1 1l1-1 1-1 1-2c0 1 0 1 0 0l-1-1h1l1 1v-2h2c-1-1 0-2 1-2h1l-1-1h1l1-1c0-1 0-1 0 0h3l1-1 1 1v-2h1c0 1 0 1 0 0 0 0 0-1 0 0l1-1 1-1c2 0 1-1 0-2l-2-1h1-3c0-1-4-1-7 1-9 4-17 10-25 18-5 6-6 7-4 9s6 3 11 1zm24-25h1c1 0 0 0 0 0l-1 1v-1zm2-1v-1l1 1h-1zm142 26 1-2c1-2-12-13-14-12l-1-1h-1v3l-1-1c0-2 0-2 0 0s0 3 2 4h-1l-1 1h1l1 1 1 2 1-1v-1 1l1 2v1l3 3c3 2 7 2 8 0zm-13-8v1-1zm54 8 2-4a97 97 0 0 0-29-24c-5-2-8-3-8-1h-2v2l-1-2-2 2c0 1 0 1 0 0h1l1 1 1 1 1 1 4 2v1h3l-1 1h-1 2l2 1h-1v1h3l-1 1h1l1 1c0 1 0 1 0 0h1v3h1-2v1h2c0 1 1 1 0 0h2v2l1 1v1h1v2h1c1 2 1 3 2 2h1l-2 1 1 1h1l1 1h1l8 2 4-1zm-18-9v-1 1c0 1 0 1 0 0zm-3-4h1l-1 1v-1zm-15-13 1-1v1h-1zm62 26-1-1c-1-1-1-1 0 0v2l1-1zm-271 0v-1l-1 1c0 1 0 0 0 0h1zm3 0h-1 1zm-39-4c-1-4-2-7-5-9-3-3-6-4-10-5l-6 1 3 1c3 0 9 4 12 7 3 2 5 6 5 8 0 1 0 1 0 0l1-3zm173 3 2-1 2-1 2-1 4-3 2-3c2 0 3-3 3-4l1-2c3-1 3-3 3-5l1-4c2-2 3-6 2-9l-1-3-3-1c-3-1-5-3-6-5 0-1 0-3 2-4 2 0 2-1 1-1l-2-1h-2l-4-1-3 1h-3c0 1 0 1 0 0h-2l-1 1v-1h-2v1l-1-1h-1l-1 1-1-2h-6l-4 1-1 1 2 1 1 3c0 3-2 4-8 6l-2 8 3 6v4l3 4 2 2 2 4c1 0 2 1 2 3 1 2 3 3 5 2l2 1 1 2h2c2 2 3 2 4 1zm-1-9 1-1-1-1h-1l-1 1v1-1l-1-1v-1h-2c1-1 0-3-1-2v1h1-1v-1h-3l1-1 1-3h-1v2h-1v1-1l-1-1v-2l-1-1-1-1v-1l2 2h1c1 1 2 1 2-1 1-1 1-1 0 0l-1-1v-1 3l-1-1v-1l-2-1c0-1 0-1 0 0l1 1 1-1h5l-1 1 2-1h4c0-1 0-1 0 0h4l1 1h2v1l1-1v-4l1 2 1 2c1 0 1 0 0 0v2l-3 2h1c0-1 0-1 0 0l-1 1v2l-1 1h-1v-1l-1 1-3 2v1l-1 1v1h-1zm1-3h-1l-1 1 2-1zm6-4-1-1v1h1zm-1-3v1-1zm2-1h-2l1 1 1-1zm-12-1-1-1v1c0 1 0 0 0 0h1zm8 0v-1l-1 1h1zm3 0-1-1-1 1h2zm-11 10h1v1l-1-1zm6 0h1-1zm1-1h1l-1 1v-1zm1-1h1c1 0 0 0 0 0v1l-1-1zm6-6 1-1c1 0 0 0 0 0v1h-1zm-22 0v-1l1 1h-1zm0-4v-3h1v2l-1 1v1-1zm19 0-1-1h1l1 1h-1zm3-1h1v1l-1-1zm-20 0 1-1v1l-1 1v-1zm18 0 1-1v1h-1zm-17-2h1c1 0 0 0 0 0l-1 1v-1zm16 0h1c1 0 0 0 0 0l-1 1v-1zm-16-21v-1l1 1h-1zm16 0v-1l1 1h-1zm-18-1c-1 0-1 0 0 0h1l-1 1v-1zm185 44 4-5c3-3 6-5 11-6l4-1-7-1c-8 1-14 7-14 14v3l2-4zm-307 3-1-1v-1h-1l2 3v-1zm258-1h-2l1 1 1-1zm-249 0h-2l1 1 1-1zm81 0-1-1v1h1s1 0 0 0zm194 0h-1 1s1 0 0 0zm-21-1h-1l1 1v-1zm-284 0-1-1-1-1v1l2 1zm24 0-1-1v1h1zm5 0h-2l1 1 1-1zm181 0h-1l1 1v-1zm37 0h-1 1zm33 0h-2l1 1 1-1zm-241-1v-1c-1 0-1 0 0 0h1v-2l-1-1h1l1 1h2l-1-2 2-1v-1h1l1-1c0 1 0 0 0 0l-1-2 2 1h1c0 1 0 0 0 0v-1l-1-1h2l-1-2h2l1-1v-3h1v1l1 2v-2h2v-1l1-2-1-1c-1 0-1 0 0 0 2 0 2 1 1 2v1c1 0 2-1 1-2l1-1 2 1v-1l-1-2 1 1 1 1 1-1c-1-1 0-3 1-3v2h1l1 1h1l-1-1-1-2v-3c1 0 0 0 0 0h-1l-1 1v-1l1-1h-1v-1l-1 1c1 1 1 1 0 0h-1c-1 1-1 0 0 0v-1h1-2v-1c0-1 0 0 0 0v1h-1v1h-1v-2h-1 1v1l-2-2s0-1 0 0h-1l-1 1v-1h-2l-2 1-18 10-10 10c0 3 1 5 3 7 4 3 7 4 15 3zm7-11v-1h1l-1 1zm7-7h1v1l-1-1zm5-3v-1l1 1h-1zm2-2h1v1l-1-1zm218 23 8-8 1-2-4-4c-7-7-16-13-24-16l-5-1c-1 1-1 1 0 0l-1-1v1l-1-1v1l-1 1h-1 1c1 0 0 0 0 0l-1-1-1 2h-3v1h-1v1l-1 1v-1h-1v2l-2 1-1 1v1c1 1 0 0 0 0l2-1h1l1-1 1-1 1 1v3h2l1-1 1 1h-1v2l1-1c1-1 1 0 1 1-1 1 0 2 1 1h1l-1 1v1l2-1h1v3l1-1h1v1c-1 0 0 0 0 0l1 1 1 1v1l1 1-1 1 1 2v-1l1-1c2 0 2 0 1 1h-1v-1 3l1-1h1l1 1 2 1 1 1v2l-1 1v1l1-1h1c0 1 0 1 0 0h1c0 2 5 2 9 1zm-18-11 1-1v2c0 1 0 0 0 0l-1-1zm-4-5 1-1v1c0 1 0 0 0 0h-1zm-2-2h1l-1 1v-1zm-2-2v-1l1 1h-1c-1 0 0 0 0 0zm-4-3h1l-1 1v-1zm37 23h-1c-1 0 0 0 0 0v1l1-1zm24 0c0-1 0-2-1-1v2l1-1zm-63 0h-1 1zm-249-1-1-1v1h1zm121 0h-1s-1 0 0 0v1l1-1zm74 0v-1l-1 1h-1 2zm119-1c1 0 0 0 0 0h-1v1l1-1zm-340 0v-2c-1-1-3-1-3 1-1 2 2 3 3 1zm368 1c1-1 1-3-1-4l-3 2c0 2 2 3 4 2zm-151-1v-1 1zm79-1h-2l-1-1-1-1 1 2 2 1 1-1zm-272 0v-2l1-1v-2c-1-1-2 0-4 2l-2 1 2 2h3zm-3-1 1-1v1h-1zm2 0v-1h1l-1 1zm-1-3 1-1v2l-1-1zm2 0h1l-1 1v-1zm121 4h-1 1zm128 0h-1c-1 0 0 0 0 0l1 1v-1zm72-2-4-3v-1l-1-1h-1v-2l-1-1-3-2v2l-1 1-1 1h2l1-1h1v1c0 1 0 1 0 0h-1l-1 2v1l1-1 1-1v1l1-1h1l2 3v1l-1 1 1 1v1h3l1-2zm-2 1v-1l1 1h-1zm-2-1h1c1 0 0 0 0 0v1l-1-1zm-1-3v-1 1c0 1 0 0 0 0zm-196 3-1-1h-1l1 1v1l1-1zm78 0v-1l-1 1v1l1-1zm-194 0v-1 1s-1 0 0 0zm310 0v-1l-1 1h1zm-197-1h-1v1l1-1zm84 0v-1 2-1zm24 0h-1v1l1-1zm-110-1v-1 1c0 1 0 1 0 0zm200-1-1 1c0 1 0 1 0 0l1-1zm-313 0v-2l2 1v-1h2l-2-1-1-1h2l1 1 1 1h1c1-1 1-2-1-2l-1-3-3 3-1 1v1h-1v1-1h-1l1 2 1 1v-1zm6-2v-1h1l-1 1zm213 2-1-1v1h1zm-215 0v-1l-1 1c0 1 0 0 0 0h1zm69-1-1-1v2l1-1zm168 0-1-1v1h1zm64 0h-2 2c0 1 0 0 0 0zm-295 0h-2 2zm251-1v-1l-1 2 1-1zm47 1-1-1v1c0 1 0 0 0 0h1zm-2-1h-1 1zm20 0h-1v1l1-1zm-308-1h3l-1-1h-1v-2h1v-1c1 1 2 0 2-1v-1l1 1v-1l1-1v1c-1 0-1 0 0 0l-1 1v1l-1 1v2l1-1v-1l1-1c-1 0-1 0 0 0h1c0-1 0-1 0 0v-2l-1-2h1l1-1 1-1 1-1s0-1 0 0l1-1 1-1 1-1 2-1c0 1 0 1 0 0l1-1v-1h2l1-1 1-2h2s0-1 0 0l1-1c-1 0 0-1 0 0l1-1h1c-1-1 0-1 1-1v1l1-2h-1l-1-1c1 0 0 0 0 0h-3l-2 1c-3 0-15 5-22 10l-11 8c0 2 2 4 3 5l8 2c2 0 3 0 2-1zm35 1v-1 1c0 1 0 0 0 0zm248-1c3 0 5-2 6-4v-3a92 92 0 0 0-32-17h-1l-4-1v3h1c0-1 0-1 0 0h1v1c0 1 0 0 0 0l2 1h1l1 1c-1 0-1 1 0 0v1l1 1c0-2 1-1 1 0h1l1 2h1l2 1v3l1-1h2l2 2v1l-2 1h1l1 1-1 1c-1 1 0 1 2 1h2v2c0 1 0 2-1 0h-1l1 1h2l-1-1v-1l1-1v-1 1l1 1 1 1-1-1-1 1 1 1c-1 1-1 1 0 0l1-1v1l-1 1-1 1h9zm-5 0v-1l1 1h-1zm-2-1 1-1c0-1 0-1 0 0v1h-1zm-4-5 1-1v1h-1zm-2-1c0-2 0-2 1-1h1l-1 1h-1zm-301 7h-1l1 1v-1zm253 0h-1c0 1 0 1 0 0h1zm87 0h-1v1l1-1zm-68-1-1-1 1 2v-1zm-269 0h-2l1 1 1-1zm335 0h-1l1 1v-1zm4 0h-1c-1 1-1 1 0 0h1zm-91 0-1-1v1h1zm-218-1h-1l1 1v-1zm2-1c-1-1-1 0-1 1h1v-1zm34 1h-1l1 1v-1zm201 0-1-1v1h1zm-274-1v-1h1l-1-2 2 1c0 1 0 1 0 0v-3l-2-2h-1v-1h1-1l-1-1 1-1-1-2v-2l-3 2-2 3h-1l-2 1v2l3 2v-1c1-1 1-1 0 0l1 1v1l1 1 3 2c1 1 0 0 0 0h1v1l1-1zm-1-1h-1s-1 0 0 0v-1h1v1zm-2-1v-1h1l-1-1h-2c-1-1-1-1 1-1 1 1 1 1 0 0v-1l1 1 2 1h2l-1 1-2 1h-1zm1-3c-1 0 0 0 0 0v-1h-1l-1-2v-1l2 2 2 1c1 0 1 0 0 0v1h-2zm-4-1h1-1zm1-4 1-1v1h-1zm353 10h1l1-1 1-1 1-1c1 0 2 0 1-1h2l2-2c2-1 2-1 0-2l-2-1-6-5v3l-1 2v1l-1 1v1h1l1 1v1l2 2-5-2 1-1v1l1-1c1 0 1 0 0 0l-2-1v1l-1 1v2l1-1h2l1 1v1l-1-1h-1v1s-1 0 0 0l1 1v1-1zm2-4v-1l-1-1v-2h1c0 1 0 0 0 0v2h2l-1 1c0 2 0 2-1 1zm2-2 1-1v1h-1zm-1-4v-1l1 1h-1zm-372 9c0-2-1-5-3-6-2-2-6-3-8-2-1 1-1 1 1 2 5 0 8 3 8 6 1 2 2 2 2 0zm28 1-1-1v1h1zm1 0h-1 1zm332 0-1-1v1h1zm30-2c1-3 5-6 9-6 1 0 1-1-1-1-3-1-7 1-8 4l-1 5 1-2zm-64 1h-1l1 1v-1zm-34 0-1-1v1c0 1 0 0 0 0h1zm-299 0c1-1 0-2-1-2l-1 1 2 1zm162 0v-1l-2 1s-1 0 0 0h2zm79 0-2-1h-1l3 1c1 0 1 0 0 0zm162-1-1-2-1 2h2zm-332-2-2 2 1-1 1-1zm-38 1h-1c-1 0-1 0 0 0h1zm264 0h-2l1 1 1-1zm-251-1 1-1h2v-1l-1-1h4l-2-1c-1 0 0 0 0 0v-1l1-1v1h1c1 0 1 0 0 0l1 1v-1l-1-1v-1h1l1 1h1c-1 0 0 0 0 0v-3 1h2v-1l1-1h1v-2l1 1h2v-1h1c-1 0 0 0 0 0v-1h1c2 0 2-1 2-2h1l1 1v-1h1l1-1h1c0 1 0 1 0 0h1l2-1v-1l1 1 1-1h3v-1h-1 2c2 0 2-1 0-2-1 0-1 0 0 0l2 1-1-1v-2h-1l-1-1c-1 1-1 1 0 0v-2c1-1 0-2-6-1-6 0-17 3-17 4l-2 1-10 3-4 2-13 7c-1 1 0 4 1 5 1 2 4 4 7 5h11zm7-9c0-1 0-1 0 0v1-1zm2 0v-2l1 1-1 1zm2-2 1-1c1 0 0 0 0 0v1h-1zm11-5 1-1v1c0 1 0 0 0 0h-1zm298 16 5-3c2-2 4-5 3-7-1-1-1-2-8-5l-10-4-4-1-2-1c-1 0 0 0 0 0l-3-1h-1l-1-1-12-4h-12 1v4h-2v1h2l-2 1h1l1 1h-1l1 1h2l-1 1 3-1v2c-1 0-1 0 0 0h2v-1 2h1c1-1 2 0 1 1l1 1v-1h2c-1 0 0 0 0 0h1v1l1-1 1 1 1 1 1 1 1 1h1l1 1 2-1-1 2h1l2-1c1-1 0 0 0 0v3l1-1 1-1v1l-1 2h-1l1 1h1c0 1 1 2 2 1v1l2 1 2-1v1l-1 1-1 1h4c-1 1 0 1 4 1l7-1zm-16-3v-2h2c-1 1-1 1 0 0v1l-2 1zm-2-1v-3h2l-1 2-1 1zm1-5v-1 2-1zm-2-1v-1 1c0 1 0 1 0 0zm-316 10-1-1v1h1zm41-1-1-1h-1l2 1c1 0 1 0 0 0zm220-1v-1l-1 1h1zm-219-1v-1l-1 1h1zm219-1h1c0-2-1-2-2-1l-2 1v1h1l2-1zm38 1-1-1v1h1zm-254-2h-1v1l1-1zm38 0-2-1 2 1c1 0 1 0 0 0zm172-1 2-2h-1l-2 3 1-1zm-294-2c-1-2-2-3-4-3-4-1-4-1-1 1l3 3 2 1v-2zm85 2v1-1zm337-4 2-1h-5l-2 4h2l3-3zm-297 4-1-1c0-1 0 0 0 0h-1l-1-1v1l3 1zm-108-3h-1v-1h-1l1 2c1 1 1 0 1-1zm103 1h-1v1l1-1zm1 0v-1 1c0 1 0 1 0 0zm172 0c-2 0-2 1-1 1l1-1zm5 0h-1v1l1-1zm-278 0-1-1v1c0 1 0 0 0 0h1zm381 0 1-1-1-1-1 1 1 1zm-387-2 1-1 1-2v-3l-1 1-1 1-4 2 5 3-1-1zm392-2-3-2-1-1h-1v1l-1 1-1 2v1l1-1c0-2 1-2 1-1 1 0 0 0 0 0l1 1 1 1h2c2-1 2-1 1-2zm-388 2v-1h-1v-1 1l1 1zm224-1c-1-1-1-1 0 0v1-1zm106 1-1-1v1h1c1 0 0 0 0 0zm-321-1 2-1 1-1 1-1 2-1 1-1h1l-1-1c-1 0-1 0 0 0l-1 1v-1h-1l-1-1h-1l-1-1c0-1 0-1 0 0h-8c-4 2-4 3-3 5 2 3 7 5 9 3zm4-4 1-1v1c0 1 0 0 0 0h-1zm143 4h-1v1l1-1zm223-1 2-2 1-3-4-2h-8l-2 1-1 1-1 1c1 1 1 1 0 0h-2 1a35 35 0 0 1 7 5c1 1 4 0 7-1zm-381 1h-1 1zm14 0-1-1v1h1zm358 0v-1l-1 1h1zm-356-1h-1 1zm120 0v-2l-1 1-1-1h-2v-1h-3l-1-1-2-1v-2l-1-1v3l-1-1h-2l1-1 1-1h-1l-1-1-1-1h-1v1h-1l-1-2c0-1 0-1 0 0-1 1-2 0-3-1v-1l-1 1v-1l-2-1h-1l1-1h1-4l-1-2-1-1 1 1v1h-1v-1l-1-1-1-1v2h-1v-1l-1-1h1l-1-1-2-2c-1 0 0 0 0 0 0 1-2 2-3 1h1l1-1-1-1v1l-2-1-2 1v-1l1-1c0-1 0-1 0 0h-2l-1 1c-1 0-1 0 0 0v-3h-1l-2-1v-1l-1-1-1 1c-1-1-1 0 0 0h-2l-1-1c-1 0 0 0 0 0v-3h-2l-1-1-1 1c0 1 0 1 0 0l-1-1-1-1v-2h-4l-1 1c-2 0-4 2-4 3-4 7 12 20 35 27l16 4 12 1h3zm-17-6 1-1v1c0 1 0 0 0 0h-1zm2-1v-1l1 1h-1zm-4-2c1 0 0 0 0 0-1 0-1 0 0 0zm-11-6h1c1 0 0 0 0 0l-1 1v-1zm-3-2c-1 0 0 0 0 0v1-1zm-2-1 1-1v1h-1zm-1-1v-1h1v-1l1 1s0 1 0 0h-1l-1 1zm-3-2v-1 1c0 1 0 0 0 0zm-7-5 1-1 1 1h-2zm-13-7 1-1 1 1h-2zm0-2 1-1v2l-1-1zm62 34-1 1c-1 0-1 0 0 0l1-1zm111 1-1-1-1 1h2zm10-1h5c15-2 38-12 46-21l5-7-1-4-8-3-1 1 1 1v1h-1l-1-1-1 1v1h-1v-1l-3 3-1 1 1-1h-2v2l-1-1c-1-1-1-1 0 0v2l-1-1h-1l-1 2-1-1v1l-2 1v1l1 1c-1 1-1 0-1-1h-2c0-1 0-1 0 0v1l1 1h-5c0-1 0-1 0 0l1 1c1 0 1 0 0 0h-3 1v1l-1 1v-1h-1l-2 1h-1v2h-1l-1-1v1l-1 1h-1v-1 1l1 1-1 1h-2v1h-1l-2 2v-1h1-2l-1 1-2 1h-1v2l1 1-2-1c-1 0-1 0 0 0v1l-1-1h-2l1 1h-3v2h-1l-1 1h1-2l-1 1h-2l-1 1h-2v2h5l5-1zm0-5h1l-1 1v-1zm2 0 1-1v1h-1c-1 0 0 0 0 0zm3 0v-1l1 1h-1zm11-10 1-1c1 0 1 0 0 0l-1 1zm6-1v1-1zm-2-1v-1l4 1h-3l-1 1v-1zm4-1 1-1v1h-1zm4-2v-1l1 1h-1c-1 0 0 0 0 0zm5-4h1v1l-1-1zm14-10v-1l1 1-1 1v-1zm64 35-1-1v1h1zm-216-1v1-1zm76 0h-1v1l1-1zm-94 0v-1l-1 1h1zm191 0h-1 1zm-175-1h-1l1 1v-1zm79 0c1 0 0 0 0 0v1-1zm-214 0h-1c-1 0 0 0 0 0h1zm350 0h-1 1zm-63-4h-1v2l1-1v-1zm-285 1h-1l1 1v-1zm109-2h-1l-1 1 2-1zm128 1-1-1 1 1c1 0 1 0 0 0zm58 0-1-1v1h1zm-320-1h1l1-1c0 1 0 1 0 0h2v-1l-1-2c0-2 0-2-1-1s0 0 0-1v-3h-1l1 1h-1l-1-1 1-1v-1l-1-1-4 1h-4l3-8 2-2-4 1c-5 1-5 1-5 5 0 6 3 11 8 14l4 1zm2-2v-1l1 1h-1zm-1-1 1-1c0-1 1-1 0 0l-1 1zm316 3v-1 1c0 1 0 0 0 0zm82-1c6-2 10-11 8-16 0-2 0-2-3-3l-5-1h-1l1 2 4 8h-7c0 1 0 0 0 0h-2l1 1v1l-1 1v1l-1 1v1l-1 1 1 2c0-1 0 0 0 0h-2l2 1h1l1 1 4-1zm-391 0h1-1c-1 1-1 1 0 0zm72 1h-1 1zm-43-2 4-1 4-1 8-4 7-2c6-3 8-4 8-7l2-1c2 0 2 0 1-1 0 0-1 0 0 0v-1l-1-1c1-1-4-3-5-2l-2-1-2-1c-1-2-2-2-2 0l1 1h1-2c-1-1-1 0-1 1h1c2 0 2 0 1 1s0 1 0 1h1l2 2c3 2 2 5-3 6l-6 3c-5 3-9 4-14 5h-18a46 46 0 0 1-18-10h-2c-1 1-1 1 1 3 7 6 13 9 20 10l2 1 12-1zm332 1 3-1c6-1 13-4 17-8l4-3v-2h-2c-4 4-11 8-17 10-9 2-21 1-31-4l-8-4c-4 0-6-3-4-6l3-1 1-2v-2h-1 1v-1l-2 1-3 1-1-1-4 3v1l-1 1 2 1c1-1 1-1 1 1 0 3 1 4 9 7l8 3 15 6h10zm18 0-1-1v1h1c1 0 0 0 0 0zm-409-2v-1 2-1zm439 0v-1 1l-1 1 1-1zm-428-1h-1l1 1v-1zm418 0h-1c-1 0 0 0 0 0v1l1-1zm12 0-1-1 1 2v-1zm-148 0h-1c-1-1-1-1 0 0h1zm120 0v1-1zm-417-1-1-1-1-2c0-2 1-2 2-1h1l1-1v-1h2v-1c-1-1-1-1 0 0l2 3v-1l1-2c0 1 0 0 0 0 0-1 0-1 0 0h-1l1-2v1c1-1 1 1 1 2 0 2 0 2 1 1h1v-2h-1v1-4l1 1v1l1 1v1l1 1v1-9c1-1-1-1-9 1l-4 2h-1l-8 3 3 3 1 1 3 2 2 1h1zm-5-3h1l-1 1v-1zm0-2v-1l1 1-1 1v-1zm1 0h1c1 0 1 0 0 0h-1zm2-1 1 1h-1v-1zm-1-1v-1 1c0 1 0 1 0 0zm4 0h1l-1 1v-1zm-3 0v-1l1 1h-1zm7 0c-1-1-2-2-1-3 1 0 2 0 1 1v2zm1-3h2l-1 1-1-1zm-2-1h1l-1 1v-1zm2 0v-1l1 1c0 1 0 0 0 0h-1zm-3 12v-1l-1 1c0 1 0 0 0 0h1zm440-1v-1l-1 1h1zm5 1 2-2 3-2h1l3-4c-1 0-7-3-8-2h-1v-1h-1l-6-2-6-2v8c-1 2-1 2 1 2v2l1-1 1-1-1-1c-2 1-2 0-1-1v-1l1-1v-2l1 2v1h-1l1 1 1-1 1-2c0 1 0 0 0 0h1v4h-1v-1 2c0 1 0 1 0 0h1l1-3v-1 4h1v-1h1l-1-1h3v1l-1 1-1 2 1-2h1v2s1 0 0 0l1-1v2h-1v1l2 1zm1-3c0-1 0-2 0 0v1-1zm2-1h1l-1 1v-1zm-1 0v-1l1 1h-1zm-3-1c-1-1 0-1 1-1v1h-1zm4-1h1-1zm-1 0v-1l1 1h-1c-1 0 0 0 0 0zm-2-1h1l-1 1v-1zm-3-2c0-1 1-1 1 1v1l-1-2zm5 2v-2l1 1-1 1c-1 0 0 0 0 0zm-6-1-1-1 1 1c1 1 1 1 0 0zm4 0 1-1v1h-1zm-6-2v-1l1 1h-1zm-3-1h2l-1 1-1-1zm-1-1-1-1h1v1zm-334 11h-1l1 1v-1zm196-1-2 1h1l1-1zm-295 0h-1v1l1-1zm143 1v-1l-1 1h1zm-147-1v-1l-1 1h1c1 0 0 0 0 0zm11-1h-2l1 1 1-1zm-13-1v-1l-1 1 1 1v-1zm5 1h-1l-1-1v1h2zm3 0-1-1-1 1h2zm58 0 11-4c4-2 7-4 7-6l-1-4h-3v-1l1-1h-3v-2l-1 1v-2h-1c-2 0-2 1-2 3 0 9-10 16-19 14-7-1-12-5-13-10l-1-4-1-2-1 1v1l-1 1-2 1c-1 0 0 0 0 0v1h-3l-1 1-1 1 6 5 12 6h17zm17-11 1-1v1h-1c-1 0 0 0 0 0zm317 11c4-1 11-5 18-11 1 0-1-2-2-1l-1-1h-1l-1-1-1-1-1-1-1-1c-1 0-1 0 0 0l-1-1-1 3-2 5c-2 5-10 9-16 8-8-1-14-6-15-14 0-3-1-3-2-3h-1v1l-1 1v1c1 1 0 1-1 1l-1-1-1 1c1 1 1 1 0 0-1 0-2 0-1 1l-1 1c-1-1-1 1-1 2s0 1 0 0l1 1c-1 1 0 2 1 3a41 41 0 0 0 33 7zm43 0-1-1v1h1zm-441-1h-1v1l1-1zm4-1-1-1v1h1zm5 0h1-2c-1 1-1 1 0 0h1zm-8 0v-1l-1 1h1zm5-1h-1l1 1v-1zm89 0 4-2-1-2v-1c0-1 0 0 0 0v-1h-3c0 2-2 4-3 5-3 2-2 2 3 1zm3-2c-1 0-1 0 0 0h1v1l-1-1zm256 1-3-3-2-2-3 2v2l-1 1 9 1v-1zm-8-1h1l-1 1v-1zm-129 1v-1h2c0 1 0 0 0 0h3c0 1 0 0 0 0h2l1-1 2 1h2l-1-1c-1-1-2-2-5-2s-4 0-5 2l-1 2zm222-1v1-1zm-381 0 1-1 1-1h1l1-1 1-1h1l2-3 1-2-1-3c-1-1-2 0-1 1l-1-1h-1c0 1 0 1 0 0l-1 1-2 4-3 2-4-1c-2 0-2-1-2-2l-1-1-1-1c-1-2-2-3-3-2s-1 1 0 0l-1-1-1 1v1c0 1 0 0 0 0v3l1 1v1l1 1 2 2 8 3h2zm333 0 2-1 2-1c2 0 4-2 4-3l1-1v-1l1-1v-4h-4l-1 2-1 1-1 1-4 3c-3 0-7-3-7-5l-1-2 1-1c2-1 3-2 2-4h-4c-1 1-2 2-1 3l1 3h-1l-1-1-1 3 1 2c0 2 2 4 4 4l1 1h1c1-1 0 0 1 1v1h5zm-262-4h-1v1l1-1zm-144-2h-1 1zm-2-2v-2h2l-1-1h-2v-3 1l1 1h1v-3l1 2 2 1v-1h-1l1-1c0 1 0 0 0 0v-1h4l1 1c-1-1 0-2 1-2h1l1-1h1v-1l2 1v-1l1 3 1 1v-1l1-1v-12c-1 0-1 0 0 0l1-2h-1l-1 1c-1-1-2 1-1 1v1l-1-1h-1v1c1 0 1 0 0 0v1h-1v-1l-1 1h-2c-1 0-1 0 0 0v2h-3v1h-1l-1-1v1l-2 1-1 1-1 1h-1l-1 1-3 5 1 2v1l1 1c1 0 1 0 0 0v1l1 1h1zm3-6v-1l1 1-1 1v-1zm1-2h1-1s-1 0 0 0zm2 0 1-1 1 1h-2zm4-1h1c1 0 0 0 0 0v1l-1-1zm2 0v-1l1 1h-1zm468 9v-2h1v-1h1l-1-6c-1-2-1-2-2-1v-2h-2c0-1-1-2-3-2l-2-1h-1l1-1h-2l-1 1v-2h-1c-1 1-2 1-2-1h-2v-2c1 0 0 0 0 0l-2 1v-2l-2-1c-1-1 0 0 0 0v2h1v12c0 1 0 0 0 0v4l1-1v-1h1l-1-2v-1c-1 0 0 1 0 0h1v1l1 1 3-1 1 1h1c-1 1 0 1 0 0l4 1v1c0 1 0 0 0 0v-1h1l1 1h2l1-1v1s1 0 0 0v1h1v-1h1v2l-1 2v1l-1 1 2-1zm-5-6 1-1v1h-1zm-1-2h2-2zm-3 0h1s1 0 0 0h-1zm-7-1h1l-1 1v-1zm0-1v-1 1zm-428 8 7-2c1-2 2-2 1 0l1 2v-2h2l1-1 1-1v-1h1l3-1c4-3 8-6 13-7h10c7 0 10 1 15 4l4 3 1-1c1-1 2-1 1-2h-1l-1-1c1-1-8-6-13-7-9-2-20 0-27 6h-3v-1h1l1-1h1v-1h1v-2h1v1l1-1 1-1c1 0 0 0 0 0v1l1-2v-1l1 1h1l2-1h1l1-1 1 1c0 1 0 0 0 0v-2l1 1c0 1 0 0 0 0l1-1h3l-1 1h2l1-1v1h-1l1 1h10l2 1c1 1 3 2 2 0l1 1 2 2h2-1 2v1l1 1 8 8 4 2 4 1-4-7c-4-5-10-10-17-13l-18-3-9 1c-7 2-12 5-20 11l-9 7c-1 0-1-1 2-4l3-3c0-1 0-1 0 0l1-1v-1h2l-1-1h-1l-2 1 1-1v-1 1h-1v-1l-2-1h3v-3l1-1-1 1h-1l-2-1v-2h-1l-10 2c-5 2-8 9-5 15 2 4 8 9 10 8l6-1zm59-8h1c1 0 0 0 0 0l-1 1v-1zm-60-9h1c1 0 0 0 0 0l-1 1v-1zm56 0h1v1l-1-1zm-54-3v-1l1 1h-1zm26 0 1-1-1 1zm-27-1v-1 2-1zm40 0h1v1l-1-1zm376 22c3-2 6-5 7-8v-10c-1-2-4-5-6-5l-9-2h-1v1l-1 1-1-1v-1l-1 1h1v2l-1 1c1 1-1 3-2 4l-1 1c1 1 1 1 3-2l1-1h2l-2 2s-1 0 0 0l-1 1-1 1 3 4c3 2 4 4 3 4l-6-5-11-8c-7-4-13-6-19-6l-20 3c-9 3-18 11-20 18l-1 1h3c4-1 4-1 5-3s7-7 10-8l4-3 1-1h2c1-2 2-2 2-1l1-1h1l2 1 5-1h4l-1-1c-1 1-1 0 0 0l1-1v1l1 1v-1h1c0 1 0 1 0 0 1 0 2 0 1 1l1 1v-1h1v1h4c1 0 1 0 0 0l1 1 1 1 1 1v-2c1 0 2 1 1 2v1h1l1-1v2h1l1 1 1 1s0 1 0 0l1 1-1 1-3-2c-8-5-18-7-26-5-6 2-14 6-13 8h-1c-2 1-1 1 0 1h2l-1 1h-1c1 1 1 1 3-1l12-5c8-1 16 0 23 3l8 6 2 1h2-1v1h1l1-1v3h1v-2c-1-2 0-2 1 0l14 4 2-1zm-22-5v-1 1zm11-10v-1l1 1h-1zm-55-2 2-1-2 2-1 1 1-2zm57 0v-1h1l-1 1s0 1 0 0zm-25-2v-1l1 1c0 1 0 0 0 0h-1zm-3-1c0-1 0-2 1-1 1 0 1 0 0 0v1h-1zm26-1 1-1v1c0 1 0 0 0 0h-1zm-39-1h1l-1 1v-1zm3 0c-1 0-1 0 0 0h1-1zm38 0h-1 1s1 0 0 0c0 1 0 1 0 0zm-308 21v-1l-1 1h1zm331 0h-1l1 1v-1zm-444 0v-1l-1 1h1zm456-1h-1l1 1v-1zm-99 0h-1v1l1-1zm-374 0h-2 2zm471 0h-2 2zm-341-1-1-1v1s0 1 0 0h1zm-132 0-1-1v1h1zm6-1h-1l1 1v-1zm7 1-1-1v1h1zm332-1h-1l-1 1 2-1zm123 1-1-1v1c0 1 0 0 0 0h1zm2 0-1-1v1h1zm-374-1h-1l1 1v-1zm282 0h-1 1zm86 0v-1 1c0 1 0 1 0 0zm-461-1-1 1h1v-1zm76 0v-3h-5c-2 1 0 3 1 3 1 2 2 1 4 0zm-67 0h-1v1l1-1zm449 0s0-1 0 0 1 1 0 0zm7 0-1-1v2l1-1zm1 0v1-1zm-4 0-1-1v1h1zm-367-1h-1l1 1v-1zm279-2c1-1 1 0 0 0l-2 2h1l1-2zm2 2c0-1 0 0 0 0 0 1 0 1 0 0zm-368 0 1-1h-2v1h1zm85-2h-1 1zm-59-13h-1 1zm400-2h-1c-1 0 0 0 0 0l1 1v-1zm-401-1-1-1h1-1v2l1-1z"/>
  <g fill="#BFAF79">
    <path d="M509 264c-3 0-6 2-9 5l-2 1h-12l-2 1 1 2 1 4 1 2 1-1 6 1c2 1 3 5 3 21v16l-8-11-10-13-7-10-5-6-6 2-5 2v1l1 22 1 22-6-8-10-17-1-3 4-5 2-1v-3c-2-4-2-4-4-4l-9 3-5 5-2 2-1-1c-4-1-8-2-13 0l-3 1v2l1 5 1 2h2l6 2c2 2 2 1 26 38l13 19 1 2h2l6-2 5-2-1-20v-21l8 12 13 17 4 5 4-1 6-2 2-1v-4a4908 4908 0 0 0-2-66c1-4 3-7 6-8 2 0 2 0 0-5 0-4 0-4-4-2zm-45 93-2 1-2-2-3-5-13-20-19-28v-1l5 4a465 465 0 0 1 34 51zm38-12-2 1-15-22-12-16-7-10v-4l5 7 11 15 17 24 3 5zM654 265c-4 0-9 1-12 3l-1 1-2-1c-2-3-6-5-11-6l-6-1h-3l-1 4v3l2 1c4 1 7 4 7 8a430 430 0 0 1-6 49c-1 4-5 8-8 9h-5l-4-1-3-3-1-2 2-1c3-2 4-4 4-8v-5l-5-6-5-2c-4 0-5 0-8 2-4 3-6 8-6 13s2 9 7 13c3 3 10 6 15 7 6 1 14 2 18 0 8-2 14-7 17-15 2-5 3-7 6-28l4-21c1-3 4-4 7-4h2v-4c1-5 1-4-4-5zm-61 48c-3 2-6 9-5 12 0 2 0 2-1 1-2-4 0-11 3-14l4-1h1l-2 2zm38-10c-3 26-3 24-5 27l-3 1 1-1 2-10a687 687 0 0 0 8-42l-3 25zM564 259h-5c-5 1-7 1-10 4l-2 2-2-1c-2-2-5-3-7-3l-11 1h-1l1 4v3l2 1c4 0 7 2 8 6 1 3 5 49 4 52l-3 6-4 3-2 1v3l1 4h2l5-1c5 0 8-2 10-4l2-1 1 1c3 2 5 2 11 3l4-1h4v-8h-3l-5-3c-3-3-3-4-5-32l-2-27c1-3 4-5 8-6h1v-3l-2-4zm-19 31a462 462 0 0 1 2 39l-2 2h-1l1-7a929 929 0 0 0-2-48l1 3 1 11zM712 285l-5-2c-5-2-7-2-11-1l-3 1-1-2-5-6-10-3h-1l-1 3-1 4 1 1c4 2 5 5 5 9l-18 49-5 4-6 1h-1l-1 3-2 4 2 1 6 2h11l1-1 1 2 9 7 4 1 4 1v-1l2-4v-2l-1-1h-1l-4-5c0-4 0-4 9-31l10-26c2-2 6-3 9-2l1 1 1-3 1-4zm-30 20a481 481 0 0 1-15 36l-3 2v-1l3-6a1039 1039 0 0 0 18-44v3l-3 10z"/>
  </g>
</svg>
